# xmcd CD database file
#
# Track frame offsets:
#	150
#	21004
#	46105
#	59810
#	81987
#	101651
#	112376
#	128655
#	145897
#	160661
#
# Disc length: 2375 seconds
#
# Revision: 0
# Processed by: cddbd v1.5.2PL0 Copyright (c) Steve Scherf et al.
# Submitted via: CDex 1.51
#
DISCID=8909450a
DTITLE=VARGAS BLUES BAND - MOJO PROTECTION
DYEAR=2009
DGENRE=Blues
TTITLE0=Ride with my Blues
TTITLE1=Mojp Protection
TTITLE2=Suffering Screams
TTITLE3=Children und Guns
TTITLE4=Too many Lies
TTITLE5=Reason to cry
TTITLE6=I am amazed
TTITLE7=Promise Land
TTITLE8=Love on the Run
TTITLE9=Time will come
EXTD=YEAR: 2009
EXTT0=
EXTT1=
EXTT2=
EXTT3=
EXTT4=
EXTT5=
EXTT6=
EXTT7=
EXTT8=
EXTT9=
PLAYORDER=
